# xmcd
#
# Track frame offsets: 
#        150
#        11745
#        26763
#        49636
#        63941
#        77786
#        89243
#        105397
#        121046
#        134374
#        151234
#        162772
#        178246
#        193799
#        209641
#
# Disc length: 2950 seconds
#
# Revision: 0
# Processed by: cddbd v1.5.2PL0 Copyright (c) Steve Scherf et al.
# Submitted via: ExactAudioCopyFreeDBPlugin 1.0
#
DISCID=cb0b840f
DTITLE=區瑞強 - 發燒靚歌 CD1
DYEAR=1900
DGENRE=Vocal
TTITLE0=相识在童年
TTITLE1=曲终人散
TTITLE2=蚌的启示
TTITLE3=爱在阳光空气中
TTITLE4=陌上归人
TTITLE5=没有寄出的信
TTITLE6=渔火闪闪
TTITLE7=鼓浪屿
TTITLE8=那天再重聚
TTITLE9=点滴情怀
TTITLE10=人在秋风里
TTITLE11=客从何处来
TTITLE12=城市民歌
TTITLE13=风中的尘
TTITLE14=我要说我在歌中爱你
EXTD=
EXTT0=
EXTT1=
EXTT2=
EXTT3=
EXTT4=
EXTT5=
EXTT6=
EXTT7=
EXTT8=
EXTT9=
EXTT10=
EXTT11=
EXTT12=
EXTT13=
EXTT14=
PLAYORDER=
